<mxfile host="app.diagrams.net" agent="Mozilla/5.0 (Windows NT 10.0; Win64; x64) AppleWebKit/537.36 (KHTML, like Gecko) Chrome/130.0.0.0 Safari/537.36 Edg/130.0.0.0" version="24.8.4">
  <diagram id="C5RBs43oDa-KdzZeNtuy" name="Page-1">
    <mxGraphModel dx="1259" dy="608" grid="0" gridSize="10" guides="1" tooltips="1" connect="1" arrows="1" fold="1" page="0" pageScale="1" pageWidth="827" pageHeight="1169" background="#ffffff" math="0" shadow="0">
      <root>
        <mxCell id="WIyWlLk6GJQsqaUBKTNV-0" />
        <mxCell id="WIyWlLk6GJQsqaUBKTNV-1" parent="WIyWlLk6GJQsqaUBKTNV-0" />
        <mxCell id="WIyWlLk6GJQsqaUBKTNV-2" value="" style="rounded=0;html=1;jettySize=auto;orthogonalLoop=1;fontSize=13;endArrow=block;endFill=0;endSize=8;strokeWidth=1;shadow=0;labelBackgroundColor=none;edgeStyle=orthogonalEdgeStyle;entryX=0.5;entryY=0;entryDx=0;entryDy=0;" parent="WIyWlLk6GJQsqaUBKTNV-1" source="WIyWlLk6GJQsqaUBKTNV-3" target="cMBAgcxpO_MVAcUcb5Mw-22" edge="1">
          <mxGeometry relative="1" as="geometry">
            <mxPoint x="309" y="210" as="targetPoint" />
            <Array as="points">
              <mxPoint x="477" y="95" />
              <mxPoint x="305" y="95" />
            </Array>
          </mxGeometry>
        </mxCell>
        <mxCell id="cMBAgcxpO_MVAcUcb5Mw-4" style="edgeStyle=orthogonalEdgeStyle;rounded=0;orthogonalLoop=1;jettySize=auto;html=1;entryX=0.5;entryY=0;entryDx=0;entryDy=0;fontSize=13;" edge="1" parent="WIyWlLk6GJQsqaUBKTNV-1" source="WIyWlLk6GJQsqaUBKTNV-3" target="cMBAgcxpO_MVAcUcb5Mw-1">
          <mxGeometry relative="1" as="geometry" />
        </mxCell>
        <mxCell id="cMBAgcxpO_MVAcUcb5Mw-5" style="edgeStyle=orthogonalEdgeStyle;rounded=0;orthogonalLoop=1;jettySize=auto;html=1;entryX=0.5;entryY=0;entryDx=0;entryDy=0;fontSize=13;" edge="1" parent="WIyWlLk6GJQsqaUBKTNV-1" source="WIyWlLk6GJQsqaUBKTNV-3" target="cMBAgcxpO_MVAcUcb5Mw-20">
          <mxGeometry relative="1" as="geometry">
            <mxPoint x="645" y="201" as="targetPoint" />
            <Array as="points">
              <mxPoint x="477" y="95" />
              <mxPoint x="841" y="95" />
            </Array>
          </mxGeometry>
        </mxCell>
        <mxCell id="cMBAgcxpO_MVAcUcb5Mw-6" style="edgeStyle=orthogonalEdgeStyle;rounded=0;orthogonalLoop=1;jettySize=auto;html=1;entryX=0.5;entryY=0;entryDx=0;entryDy=0;fontSize=13;" edge="1" parent="WIyWlLk6GJQsqaUBKTNV-1" source="WIyWlLk6GJQsqaUBKTNV-3" target="WIyWlLk6GJQsqaUBKTNV-7">
          <mxGeometry relative="1" as="geometry">
            <Array as="points">
              <mxPoint x="477" y="96" />
              <mxPoint x="141" y="96" />
            </Array>
          </mxGeometry>
        </mxCell>
        <mxCell id="WIyWlLk6GJQsqaUBKTNV-3" value="Giao diện chính" style="rounded=1;whiteSpace=wrap;html=1;fontSize=13;glass=0;strokeWidth=1;shadow=0;" parent="WIyWlLk6GJQsqaUBKTNV-1" vertex="1">
          <mxGeometry x="417" y="4" width="120" height="40" as="geometry" />
        </mxCell>
        <mxCell id="cMBAgcxpO_MVAcUcb5Mw-8" style="edgeStyle=orthogonalEdgeStyle;rounded=0;orthogonalLoop=1;jettySize=auto;html=1;fontSize=13;" edge="1" parent="WIyWlLk6GJQsqaUBKTNV-1" source="WIyWlLk6GJQsqaUBKTNV-7" target="cMBAgcxpO_MVAcUcb5Mw-7">
          <mxGeometry relative="1" as="geometry" />
        </mxCell>
        <mxCell id="WIyWlLk6GJQsqaUBKTNV-7" value="Quét các host trong mạng LAN" style="rounded=1;whiteSpace=wrap;html=1;fontSize=13;glass=0;strokeWidth=1;shadow=0;" parent="WIyWlLk6GJQsqaUBKTNV-1" vertex="1">
          <mxGeometry x="81" y="199" width="120" height="40" as="geometry" />
        </mxCell>
        <mxCell id="cMBAgcxpO_MVAcUcb5Mw-1" value="Quét cổng TCP&amp;nbsp;" style="rounded=1;whiteSpace=wrap;html=1;fontSize=13;glass=0;strokeWidth=1;shadow=0;" vertex="1" parent="WIyWlLk6GJQsqaUBKTNV-1">
          <mxGeometry x="417" y="199" width="120" height="40" as="geometry" />
        </mxCell>
        <mxCell id="cMBAgcxpO_MVAcUcb5Mw-11" style="edgeStyle=orthogonalEdgeStyle;rounded=0;orthogonalLoop=1;jettySize=auto;html=1;entryX=0.5;entryY=0;entryDx=0;entryDy=0;fontSize=13;" edge="1" parent="WIyWlLk6GJQsqaUBKTNV-1" source="cMBAgcxpO_MVAcUcb5Mw-7" target="cMBAgcxpO_MVAcUcb5Mw-10">
          <mxGeometry relative="1" as="geometry" />
        </mxCell>
        <mxCell id="cMBAgcxpO_MVAcUcb5Mw-7" value="Chọn giao diện quét" style="rounded=1;whiteSpace=wrap;html=1;fontSize=13;glass=0;strokeWidth=1;shadow=0;" vertex="1" parent="WIyWlLk6GJQsqaUBKTNV-1">
          <mxGeometry x="81" y="306" width="120" height="40" as="geometry" />
        </mxCell>
        <mxCell id="cMBAgcxpO_MVAcUcb5Mw-10" value="Danh sách các host có thể tìm thấy:&lt;div style=&quot;font-size: 13px;&quot;&gt;...&lt;/div&gt;" style="rounded=0;whiteSpace=wrap;html=1;fillColor=default;align=left;verticalAlign=top;fontSize=13;" vertex="1" parent="WIyWlLk6GJQsqaUBKTNV-1">
          <mxGeometry x="82.75" y="410" width="116.5" height="85" as="geometry" />
        </mxCell>
        <mxCell id="cMBAgcxpO_MVAcUcb5Mw-16" style="edgeStyle=orthogonalEdgeStyle;rounded=0;orthogonalLoop=1;jettySize=auto;html=1;entryX=0.5;entryY=0;entryDx=0;entryDy=0;" edge="1" parent="WIyWlLk6GJQsqaUBKTNV-1" source="cMBAgcxpO_MVAcUcb5Mw-12" target="cMBAgcxpO_MVAcUcb5Mw-14">
          <mxGeometry relative="1" as="geometry" />
        </mxCell>
        <mxCell id="cMBAgcxpO_MVAcUcb5Mw-12" value="Chọn IP mục tiêu" style="rounded=1;whiteSpace=wrap;html=1;fontSize=13;glass=0;strokeWidth=1;shadow=0;" vertex="1" parent="WIyWlLk6GJQsqaUBKTNV-1">
          <mxGeometry x="417" y="308" width="120" height="40" as="geometry" />
        </mxCell>
        <mxCell id="cMBAgcxpO_MVAcUcb5Mw-13" style="edgeStyle=orthogonalEdgeStyle;rounded=0;orthogonalLoop=1;jettySize=auto;html=1;fontSize=13;" edge="1" target="cMBAgcxpO_MVAcUcb5Mw-12" parent="WIyWlLk6GJQsqaUBKTNV-1">
          <mxGeometry relative="1" as="geometry">
            <mxPoint x="477" y="241" as="sourcePoint" />
          </mxGeometry>
        </mxCell>
        <mxCell id="cMBAgcxpO_MVAcUcb5Mw-14" value="Danh sách các cổng (port) và dịch vụ mà host đang mở&amp;nbsp;" style="rounded=0;whiteSpace=wrap;html=1;fillColor=default;align=left;verticalAlign=top;fontSize=13;" vertex="1" parent="WIyWlLk6GJQsqaUBKTNV-1">
          <mxGeometry x="412.88" y="410" width="128.25" height="78" as="geometry" />
        </mxCell>
        <mxCell id="cMBAgcxpO_MVAcUcb5Mw-19" style="edgeStyle=orthogonalEdgeStyle;rounded=0;orthogonalLoop=1;jettySize=auto;html=1;" edge="1" parent="WIyWlLk6GJQsqaUBKTNV-1" source="cMBAgcxpO_MVAcUcb5Mw-20" target="cMBAgcxpO_MVAcUcb5Mw-21">
          <mxGeometry relative="1" as="geometry" />
        </mxCell>
        <mxCell id="cMBAgcxpO_MVAcUcb5Mw-20" value="NetworkSniffer" style="rounded=1;whiteSpace=wrap;html=1;fontSize=13;glass=0;strokeWidth=1;shadow=0;" vertex="1" parent="WIyWlLk6GJQsqaUBKTNV-1">
          <mxGeometry x="781" y="199" width="120" height="40" as="geometry" />
        </mxCell>
        <mxCell id="cMBAgcxpO_MVAcUcb5Mw-25" style="edgeStyle=orthogonalEdgeStyle;rounded=0;orthogonalLoop=1;jettySize=auto;html=1;" edge="1" parent="WIyWlLk6GJQsqaUBKTNV-1" source="cMBAgcxpO_MVAcUcb5Mw-21" target="cMBAgcxpO_MVAcUcb5Mw-24">
          <mxGeometry relative="1" as="geometry" />
        </mxCell>
        <mxCell id="cMBAgcxpO_MVAcUcb5Mw-28" style="edgeStyle=orthogonalEdgeStyle;rounded=0;orthogonalLoop=1;jettySize=auto;html=1;entryX=0.5;entryY=0;entryDx=0;entryDy=0;" edge="1" parent="WIyWlLk6GJQsqaUBKTNV-1" source="cMBAgcxpO_MVAcUcb5Mw-21" target="cMBAgcxpO_MVAcUcb5Mw-26">
          <mxGeometry relative="1" as="geometry" />
        </mxCell>
        <mxCell id="cMBAgcxpO_MVAcUcb5Mw-30" style="edgeStyle=orthogonalEdgeStyle;rounded=0;orthogonalLoop=1;jettySize=auto;html=1;entryX=0.5;entryY=0;entryDx=0;entryDy=0;" edge="1" parent="WIyWlLk6GJQsqaUBKTNV-1" source="cMBAgcxpO_MVAcUcb5Mw-21" target="cMBAgcxpO_MVAcUcb5Mw-29">
          <mxGeometry relative="1" as="geometry" />
        </mxCell>
        <mxCell id="cMBAgcxpO_MVAcUcb5Mw-21" value="Chọn giao diện quét" style="rounded=1;whiteSpace=wrap;html=1;fontSize=13;glass=0;strokeWidth=1;shadow=0;" vertex="1" parent="WIyWlLk6GJQsqaUBKTNV-1">
          <mxGeometry x="781" y="302" width="120" height="40" as="geometry" />
        </mxCell>
        <mxCell id="cMBAgcxpO_MVAcUcb5Mw-22" value="Lắng nghe thông điệp" style="rounded=1;whiteSpace=wrap;html=1;fontSize=13;glass=0;strokeWidth=1;shadow=0;" vertex="1" parent="WIyWlLk6GJQsqaUBKTNV-1">
          <mxGeometry x="245" y="199" width="120" height="40" as="geometry" />
        </mxCell>
        <mxCell id="cMBAgcxpO_MVAcUcb5Mw-24" value="Nội dung header, payload của gói tin được chọn" style="rounded=0;whiteSpace=wrap;html=1;" vertex="1" parent="WIyWlLk6GJQsqaUBKTNV-1">
          <mxGeometry x="985" y="410" width="120" height="60" as="geometry" />
        </mxCell>
        <mxCell id="cMBAgcxpO_MVAcUcb5Mw-26" value="Danh sách các gói tin bắt được" style="rounded=0;whiteSpace=wrap;html=1;" vertex="1" parent="WIyWlLk6GJQsqaUBKTNV-1">
          <mxGeometry x="781" y="410" width="120" height="60" as="geometry" />
        </mxCell>
        <mxCell id="cMBAgcxpO_MVAcUcb5Mw-29" value="Thanh tìm kiếm gói tin" style="rounded=0;whiteSpace=wrap;html=1;" vertex="1" parent="WIyWlLk6GJQsqaUBKTNV-1">
          <mxGeometry x="607" y="410" width="120" height="60" as="geometry" />
        </mxCell>
      </root>
    </mxGraphModel>
  </diagram>
</mxfile>
